<?xml version="1.0" encoding="iso-8859-1"?>

<!DOCTYPE svg PUBLIC "-//W3C//DTD SVG 1.1//EN" "http://www.w3.org/Graphics/SVG/1.1/DTD/svg11.dtd">


<svg
      version="1.1"
      xmlns="http://www.w3.org/2000/svg"
      xml:space="preserve"
      xmlns:xlink="http://www.w3.org/1999/xlink"
      x="0px"
      y="0px"
      focusable="false"
      viewBox="0 0 24 24"
    >
      <path fill="#34a853" d="M10 2v2a6 6 0 0 1 6 6h2a8 8 0 0 0-8-8"></path>
      <path fill="#ea4335" d="M10 4V2a8 8 0 0 0-8 8h2c0-3.3 2.7-6 6-6"></path>
      <path
        fill="#fbbc04"
        d="M4 10H2a8 8 0 0 0 8 8v-2c-3.3 0-6-2.69-6-6"
      ></path>
      <path
        fill="#4285f4"
        d="M22 20.59l-5.69-5.69A7.96 7.96 0 0 0 18 10h-2a6 6 0 0 1-6 6v2c1.85 0 3.52-.64 4.88-1.68l5.69 5.69L22 20.59"
      ></path>
    </svg>